<svg xmlns="http://www.w3.org/2000/svg" viewBox="0 0 720 360" role="img" aria-labelledby="t"><title id="t">Клуб за граждански инициативи</title><rect width="720" height="360" rx="28" fill="#ffffff"/><g transform="translate(150 180)" fill="none" stroke="#1c8f8e" stroke-width="24" stroke-linecap="round" stroke-linejoin="round"><path d="M0-84 C-48-126-92-65-57-27 C-30 2 0 24 0 58"/><path d="M84 0 C126-48 65-92 27-57 C-2-30-24 0-58 0"/><path d="M0 84 C48 126 92 65 57 27 C30-2 0-24 0-58"/><path d="M-84 0 C-126 48-65 92-27 57 C2 30 24 0 58 0"/></g><circle cx="150" cy="180" r="22" fill="#1c8f8e"/><text x="310" y="125" font-family="Arial,Helvetica,sans-serif" font-size="28" font-weight="700" fill="#4c6268">КЛУБ ЗА</text><text x="310" y="178" font-family="Arial,Helvetica,sans-serif" font-size="42" font-weight="900" fill="#1c8f8e">ГРАЖДАНСКИ</text><text x="310" y="228" font-family="Arial,Helvetica,sans-serif" font-size="42" font-weight="900" fill="#1c8f8e">ИНИЦИАТИВИ</text></svg>